<svg xmlns:vectornator="http://vectornator.io" xmlns="http://www.w3.org/2000/svg" viewBox="0 0 300 300" fill-rule="evenodd" clip-rule="evenodd" stroke-linecap="round" stroke-linejoin="round"><g vectornator:layerName="Layer 1"><path d="M168.104 77.715h-50.625V27.09c0-6.212-5.038-11.25-11.25-11.25h-11.25c-6.212 0-11.25 5.038-11.25 11.25v50.625H33.104c-6.212 0-11.25 5.037-11.25 11.25v11.25c0 6.212 5.038 11.249 11.25 11.249h50.625v50.625c0 6.212 5.038 11.25 11.25 11.25h11.25c6.212 0 11.25-5.038 11.25-11.25v-50.625h50.625c6.212 0 11.249-5.037 11.249-11.249v-11.25c0-6.213-5.037-11.25-11.249-11.25zM263.273 170.468h-50.625v-50.625c0-6.212-5.038-11.25-11.25-11.25h-11.25c-6.212 0-11.25 5.038-11.25 11.25v50.625h-50.625c-6.212 0-11.25 5.038-11.25 11.25v11.25c0 6.212 5.038 11.25 11.25 11.25h50.625v50.625c0 6.212 5.038 11.25 11.25 11.25h11.25c6.212 0 11.25-5.038 11.25-11.25v-50.625h50.625c6.212 0 11.25-5.038 11.25-11.25v-11.25c0-6.212-5.038-11.25-11.25-11.25z" fill="#000"/></g></svg>
